 http://www.imdb.com/title/tt0042546/

Source: Harvey.1950.720p.BluRay.X264-AMIABLE Thanks!

Subs: Danish, Dutch, English, Greek, Hungarian and Turkish.

Sample and Screens included.

General
Complete name                            : Harvey-720p MP4 AAC x264 BRRip 1950-CC.mp4
Format                                   : MPEG-4
Format profile                           : Base Media
Codec ID                                 : isom
File size                                : 2.46 GiB
Duration                                 : 1h 44mn
Overall bit rate mode                    : Variable
Overall bit rate                         : 3 368 Kbps
Encoded date                             : UTC 2012-09-17 17:42:33

Video
ID                                       : 1
Format                                   : AVC
Format/Info                              : Advanced Video Codec
Format profile                           : High@L3.1
Format settings, CABAC                   : Yes
Format settings, ReFrames                : 5 frames
Codec ID                                 : avc1
Codec ID/Info                            : Advanced Video Coding
Duration                                 : 1h 44mn
Bit rate                                 : 3 212 Kbps
Maximum bit rate                         : 17.7 Mbps
Width                                    : 976 pixels
Height                                   : 720 pixels
Display aspect ratio                     : 4:3
Frame rate mode                          : Variable
Frame rate                               : 23.976 fps
Minimum frame rate                       : 19.048 fps
Maximum frame rate                       : 25.000 fps
Color space                              : YUV
Chroma subsampling                       : 4:2:0
Bit depth                                : 8 bits
Scan type                                : Progressive
Bits/(Pixel*Frame)                       : 0.191
Stream size                              : 2.33 GiB (95%)
Writing library                          : x264 core 112

Audio
ID                                       : 2
Format                                   : AAC
Format/Info                              : Advanced Audio Codec
Format profile                           : LC
Codec ID                                 : 40
Duration                                 : 1h 44mn
Bit rate mode                            : Variable
Bit rate                                 : 172 Kbps
Maximum bit rate                         : 211 Kbps
Channel(s)                               : 2 channels
Channel positions                        : Front: L R
Sampling rate                            : 48.0 KHz
Compression mode                         : Lossy
Delay relative to video                  : 83ms
Stream size                              : 128 MiB (5%)
Language                                 : English

Enjoy...

Requested by

Coming soon: Batman Begins, The Dark Knight, The Taking Of Pelham 123, Starsky and Hutch and more...